<svg width="21" height="50" viewBox="0 0 21 50" fill="none" xmlns="http://www.w3.org/2000/svg">
<path d="M16.5134 45.0765C14.4706 44.4258 12.4282 44.6228 11.1514 45.4522C11.6356 46.8387 13.1357 48.1575 15.1794 48.8057C17.2214 49.4546 19.2643 49.2594 20.5406 48.429C20.0564 47.0435 18.5558 45.7221 16.5134 45.0765Z" fill="white"/>
<path d="M14.9597 42.8795C15.9615 41.8434 16.4552 40.0466 16.122 38.1395C15.7892 36.2333 14.7176 34.7261 13.4275 34.1162C12.4267 35.1513 11.9307 36.949 12.2648 38.856C12.5976 40.7615 13.67 42.2712 14.9597 42.8795Z" fill="white"/>
<path d="M8.08256 37.2185C6.31916 36.1053 4.31779 35.8093 2.86621 36.3065C2.93486 37.7625 3.99073 39.3935 5.75425 40.5068C7.51729 41.6192 9.51819 41.9149 10.9701 41.417C10.9011 39.9602 9.84561 38.3316 8.08256 37.2185Z" fill="white"/>
<path d="M9.36568 27.1013C8.27023 27.9099 7.52619 29.5125 7.53623 31.3414C7.5458 33.1704 8.30627 34.7418 9.41035 35.5062C10.5062 34.6958 11.2498 33.095 11.2398 31.2651C11.2298 29.4371 10.4693 27.8665 9.36568 27.1013Z" fill="white"/>
<path d="M6.51541 24.131C7.86372 23.8569 9.25457 22.7202 10.0719 21.0622C10.8914 19.4042 10.9174 17.6671 10.2727 16.5149C8.92349 16.79 7.53229 17.9257 6.71498 19.5856C5.89638 21.2418 5.86897 22.9797 6.51541 24.131Z" fill="white"/>
<path d="M4.54047 19.9413C5.55687 19.1274 6.20497 17.5699 6.12262 15.8208C6.04144 14.0716 5.25143 12.5983 4.16343 11.906C3.14691 12.7191 2.49751 14.2756 2.58034 16.0256C2.66068 17.7739 3.45199 19.2489 4.54047 19.9413Z" fill="white"/>
<path d="M14.7273 8.56576C13.4844 8.4417 11.9349 9.05589 10.712 10.2776C9.48937 11.4993 8.9202 13.002 9.1115 14.1759C10.3552 14.3 11.9041 13.6858 13.1267 12.4641C14.3492 11.2425 14.9188 9.74144 14.7273 8.56576Z" fill="white"/>
<path d="M11.0266 7.33206C11.5558 5.85189 11.4127 4.38554 10.7602 3.47974C9.65096 3.84756 8.58977 4.94514 8.0596 6.42626C7.52989 7.90466 7.67357 9.37195 8.32687 10.2778C9.43532 9.90816 10.4964 8.81224 11.0266 7.33206Z" fill="white"/>
<path d="M17.031 4.44628C18.1745 3.31397 18.7122 1.91887 18.5378 0.822948C17.3821 0.70408 15.9383 1.269 14.7934 2.40214C13.6511 3.53351 13.1149 4.9305 13.2876 6.0237C14.4442 6.14434 15.8884 5.57943 17.031 4.44628Z" fill="white"/>
<path d="M4.12757 25.7652C3.12759 24.2277 1.62438 23.2924 0.259173 23.2083C-0.245365 24.4473 -0.0176733 26.1739 0.981004 27.7096C1.97968 29.2463 3.48408 30.1825 4.8494 30.2658C5.35276 29.0258 5.12625 27.3 4.12757 25.7652Z" fill="white"/>
</svg>
