<svg width="21" height="50" viewBox="0 0 21 50" fill="none" xmlns="http://www.w3.org/2000/svg">
<path d="M4.48471 45.0763C2.44222 45.7219 0.942073 47.0432 0.457031 48.4288C1.73338 49.2592 3.77588 49.4544 5.81919 48.8055C7.86251 48.1572 9.36254 46.8385 9.84675 45.452C8.56958 44.6225 6.52803 44.4256 4.48471 45.0763Z" fill="white"/>
<path d="M4.87592 38.1394C4.54271 40.0465 5.0365 41.8433 6.0386 42.8793C7.32795 42.271 8.40119 40.7615 8.73345 38.856C9.06666 36.9489 8.57122 35.1513 7.57006 34.1162C6.27976 34.7261 5.20913 36.2333 4.87592 38.1394Z" fill="white"/>
<path d="M12.9157 37.2185C11.1526 38.3316 10.0967 39.9602 10.0273 41.417C11.4798 41.9149 13.4815 41.6192 15.2436 40.5068C17.0074 39.3935 18.0643 37.7625 18.1328 36.3065C16.6812 35.8093 14.6796 36.1053 12.9157 37.2185Z" fill="white"/>
<path d="M11.6312 27.1016C10.5275 27.8668 9.76572 29.4373 9.75792 31.2654C9.74752 33.0953 10.4911 34.696 11.5851 35.5064C12.6905 34.7421 13.4506 33.1707 13.4602 31.3417C13.4706 29.5127 12.727 27.9101 11.6312 27.1016Z" fill="white"/>
<path d="M10.7256 16.5151C10.08 17.6674 10.1052 19.4045 10.9242 21.0625C11.7423 22.7205 13.1333 23.8572 14.4824 24.1313C15.1281 22.98 15.1002 21.242 14.282 19.5857C13.4656 17.926 12.0739 16.7902 10.7256 16.5151Z" fill="white"/>
<path d="M16.4571 19.9419C17.5451 19.2495 18.3364 17.7745 18.4171 16.0261C18.4994 14.276 17.8505 12.7195 16.8335 11.9065C15.7455 12.5989 14.956 14.0721 14.8743 15.8213C14.7912 17.5705 15.441 19.128 16.4571 19.9419Z" fill="white"/>
<path d="M11.8856 14.1762C12.0773 13.0023 11.5073 11.4994 10.2856 10.2779C9.06234 9.05625 7.51352 8.44194 6.26931 8.56601C6.07931 9.74169 6.64765 11.2428 7.87095 12.4643C9.09354 13.6861 10.6414 14.3003 11.8856 14.1762Z" fill="white"/>
<path d="M12.6708 10.278C13.3233 9.3722 13.4673 7.90502 12.9372 6.4265C12.4079 4.9455 11.3468 3.84781 10.237 3.47998C9.58454 4.38578 9.44133 5.85213 9.97068 7.33231C10.5017 8.81248 11.5611 9.9084 12.6708 10.278Z" fill="white"/>
<path d="M7.70928 6.02371C7.88285 4.9305 7.34665 3.53363 6.20393 2.40214C5.05945 1.269 3.61579 0.70408 2.45996 0.822948C2.28555 1.91875 2.82353 3.31397 3.96625 4.44629C5.10896 5.57955 6.55262 6.14446 7.70928 6.02371Z" fill="white"/>
<path d="M20.7374 23.208C19.3725 23.2923 17.8688 24.2275 16.8693 25.765C15.8698 27.2998 15.6443 29.0256 16.1474 30.2654C17.5122 30.1821 19.0176 29.2459 20.0154 27.7093C21.0141 26.1737 21.2413 24.4471 20.7374 23.208Z" fill="white"/>
</svg>
