<svg width="30" height="30" viewBox="0 0 30 30" fill="none" xmlns="http://www.w3.org/2000/svg">
<path d="M15 0L17.1119 1.66621L19.6353 0.734152L21.1289 2.97141L23.8168 2.86475L24.5459 5.45406L27.1353 6.18322L27.0286 8.87113L29.2658 10.3647L28.3338 12.8881L30 15L28.3338 17.1119L29.2658 19.6353L27.0286 21.1289L27.1353 23.8168L24.5459 24.5459L23.8168 27.1353L21.1289 27.0286L19.6353 29.2658L17.1119 28.3338L15 30L12.8881 28.3338L10.3647 29.2658L8.87113 27.0286L6.18322 27.1353L5.45406 24.5459L2.86475 23.8168L2.97141 21.1289L0.734152 19.6353L1.66621 17.1119L0 15L1.66621 12.8881L0.734152 10.3647L2.97141 8.87113L2.86475 6.18322L5.45406 5.45406L6.18322 2.86475L8.87113 2.97141L10.3647 0.734152L12.8881 1.66621L15 0Z" fill="#F26F80"/>
</svg>
