<svg width="20" height="20" viewBox="0 0 20 20" fill="none" xmlns="http://www.w3.org/2000/svg">
<path d="M14.7002 12.2074C16.6391 9.13025 16.272 5.00711 13.5945 2.32955C10.4887 -0.776518 5.4354 -0.776518 2.32931 2.32955C-0.776435 5.43566 -0.776435 10.4887 2.32931 13.5944C5.00649 16.2719 9.13067 16.6388 12.2074 14.7001L17.507 20L20 17.5073L14.7002 12.2074ZM11.5837 11.5837C9.5868 13.5813 6.33731 13.5813 4.34001 11.5837C2.34309 9.58678 2.34345 6.33762 4.34036 4.34031C6.33731 2.34338 9.5868 2.34303 11.5837 4.33999C13.5807 6.33762 13.5807 9.58678 11.5837 11.5837Z" fill="#4B4B4B"/>
</svg>
