<svg width="29" height="31" viewBox="0 0 29 31" fill="none" xmlns="http://www.w3.org/2000/svg">
<path d="M5.5 14.8811C6.46443 15.4143 13.4457 19.4386 18.41 16.337C23.3741 13.2353 23.1003 7.89165 23.1003 5.443C23.55 4.5009 24.5 4.02195 24.5 1.4719C23.5669 2.3339 22.6394 2.6272 21.7175 2.3518C20.8144 0.974784 19.5718 0.365734 17.9897 0.524669C15.6167 0.763069 14.7485 3.09125 15.004 6.10335C11.345 7.9537 8.47575 4.762 6.99709 2.3518C6.50304 4.24995 6.02665 6.5288 6.99709 9.04975C7.64405 10.7303 9.19925 12.1512 11.6627 13.3123C9.16615 14.6654 7.11191 15.1883 5.5 14.8811Z" fill="white"/>
<path d="M2.09931 29H3.28331V24.064H4.96331V23.072H0.435313V24.064H2.09931V29ZM6.32913 29H7.67313L8.12913 27.048C8.22513 26.632 8.28913 26.216 8.37713 25.744H8.41713C8.50513 26.216 8.57713 26.624 8.67313 27.048L9.14513 29H10.5291L11.6331 24.52H10.5451L10.0571 26.728C9.97713 27.168 9.91313 27.592 9.83313 28.04H9.79313C9.69713 27.592 9.61713 27.168 9.51313 26.728L8.95312 24.52H7.91313L7.36913 26.728C7.25713 27.16 7.17713 27.592 7.08913 28.04H7.05713C6.97713 27.592 6.92113 27.168 6.83313 26.728L6.34513 24.52H5.16913L6.32913 29ZM12.4914 29H13.6674V24.52H12.4914V29ZM13.0834 23.8C13.4834 23.8 13.7634 23.544 13.7634 23.152C13.7634 22.768 13.4834 22.512 13.0834 22.512C12.6754 22.512 12.3954 22.768 12.3954 23.152C12.3954 23.544 12.6754 23.8 13.0834 23.8ZM16.5611 29.112C16.9531 29.112 17.2651 29.024 17.5051 28.944L17.3131 28.088C17.1931 28.136 17.0171 28.184 16.8731 28.184C16.4731 28.184 16.2651 27.944 16.2651 27.432V25.448H17.3691V24.52H16.2651V23.312H15.2891L15.1531 24.52L14.4571 24.576V25.448H15.0891V27.432C15.0891 28.432 15.4971 29.112 16.5611 29.112ZM19.7329 29.112C20.1249 29.112 20.4369 29.024 20.6769 28.944L20.4849 28.088C20.3649 28.136 20.1889 28.184 20.0449 28.184C19.6449 28.184 19.4369 27.944 19.4369 27.432V25.448H20.5409V24.52H19.4369V23.312H18.4609L18.3249 24.52L17.6289 24.576V25.448H18.2609V27.432C18.2609 28.432 18.6689 29.112 19.7329 29.112ZM23.2559 29.112C23.8079 29.112 24.3759 28.92 24.8159 28.616L24.4159 27.896C24.0959 28.096 23.7759 28.208 23.4079 28.208C22.7439 28.208 22.2639 27.824 22.1679 27.088H24.9279C24.9599 26.984 24.9839 26.768 24.9839 26.544C24.9839 25.312 24.3439 24.408 23.1119 24.408C22.0479 24.408 21.0239 25.312 21.0239 26.76C21.0239 28.24 21.9999 29.112 23.2559 29.112ZM22.1519 26.304C22.2399 25.656 22.6559 25.32 23.1279 25.32C23.7039 25.32 23.9759 25.704 23.9759 26.304H22.1519ZM25.9523 29H27.1283V26.328C27.3763 25.68 27.8003 25.448 28.1523 25.448C28.3363 25.448 28.4643 25.472 28.6243 25.52L28.8243 24.504C28.6883 24.448 28.5443 24.408 28.2963 24.408C27.8323 24.408 27.3523 24.728 27.0243 25.312H27.0003L26.9123 24.52H25.9523V29Z" fill="white"/>
</svg>
